<svg width="33" height="51" viewBox="0 0 33 51" fill="none" xmlns="http://www.w3.org/2000/svg">
<path d="M29.75 35.0625V5.3125C29.75 3.90354 29.1903 2.55228 28.194 1.556C27.1977 0.559708 25.8465 0 24.4375 0L5.3125 0C3.90354 0 2.55228 0.559708 1.556 1.556C0.559708 2.55228 0 3.90354 0 5.3125V43.5625C0 44.9715 0.559708 46.3227 1.556 47.319C2.55228 48.3153 3.90354 48.875 5.3125 48.875H11.9956L14.1844 50.745C14.3985 50.9282 14.6767 51.0188 14.9576 50.9968C15.2386 50.9749 15.4993 50.8423 15.6825 50.6281C15.8657 50.414 15.9563 50.1358 15.9343 49.8549C15.9124 49.5739 15.7798 49.3132 15.5656 49.13L9.19062 43.6475C9.02435 43.5018 8.91368 43.3031 8.87744 43.085C8.84119 42.867 8.88161 42.6431 8.99182 42.4515C9.10203 42.2598 9.27523 42.1123 9.48194 42.034C9.68865 41.9557 9.91611 41.9514 10.1256 42.0219L14.535 43.5625C14.6948 43.6152 14.8648 43.6292 15.031 43.6033C15.1973 43.5775 15.355 43.5125 15.4913 43.4137C15.6361 43.3109 15.7528 43.1734 15.8308 43.0137C15.9087 42.8541 15.9454 42.6775 15.9375 42.5V28.6875C15.9375 28.4057 16.0494 28.1355 16.2487 27.9362C16.448 27.7369 16.7182 27.625 17 27.625C17.2818 27.625 17.552 27.7369 17.7513 27.9362C17.9506 28.1355 18.0625 28.4057 18.0625 28.6875V40.375C18.0625 40.6568 18.1744 40.927 18.3737 41.1263C18.573 41.3256 18.8432 41.4375 19.125 41.4375C19.4068 41.4375 19.677 41.3256 19.8763 41.1263C20.0756 40.927 20.1875 40.6568 20.1875 40.375V36.125C20.1875 35.8432 20.2994 35.573 20.4987 35.3737C20.698 35.1744 20.9682 35.0625 21.25 35.0625C21.5318 35.0625 21.802 35.1744 22.0013 35.3737C22.2006 35.573 22.3125 35.8432 22.3125 36.125V40.375C22.3125 40.6568 22.4244 40.927 22.6237 41.1263C22.823 41.3256 23.0932 41.4375 23.375 41.4375C23.6568 41.4375 23.927 41.3256 24.1263 41.1263C24.3256 40.927 24.4375 40.6568 24.4375 40.375V37.1875C24.4375 36.9057 24.5494 36.6355 24.7487 36.4362C24.948 36.2369 25.2182 36.125 25.5 36.125C25.7818 36.125 26.052 36.2369 26.2513 36.4362C26.4506 36.6355 26.5625 36.9057 26.5625 37.1875V40.375C26.5625 40.6568 26.6744 40.927 26.8737 41.1263C27.073 41.3256 27.3432 41.4375 27.625 41.4375C27.9068 41.4375 28.177 41.3256 28.3763 41.1263C28.5756 40.927 28.6875 40.6568 28.6875 40.375V38.25C28.6875 37.9682 28.7994 37.698 28.9987 37.4987C29.198 37.2994 29.4682 37.1875 29.75 37.1875C30.0318 37.1875 30.302 37.2994 30.5013 37.4987C30.7006 37.698 30.8125 37.9682 30.8125 38.25V49.9375C30.8125 50.2193 30.9244 50.4895 31.1237 50.6888C31.323 50.8881 31.5932 51 31.875 51C32.1568 51 32.427 50.8881 32.6263 50.6888C32.8256 50.4895 32.9375 50.2193 32.9375 49.9375V38.25C32.9375 37.4046 32.6017 36.5939 32.0039 35.9961C31.4061 35.3983 30.5954 35.0625 29.75 35.0625ZM20.1875 2.125V3.1875C20.1875 3.46929 20.0756 3.73954 19.8763 3.9388C19.677 4.13806 19.4068 4.25 19.125 4.25H10.625C10.3432 4.25 10.073 4.13806 9.8737 3.9388C9.67444 3.73954 9.5625 3.46929 9.5625 3.1875V2.125H20.1875ZM17 25.5C16.3424 25.5018 15.7014 25.7071 15.165 26.0875C14.6286 26.4679 14.223 27.005 14.0037 27.625H7.4375V26.5625C7.4375 25.5858 7.62988 24.6187 8.00364 23.7163C8.37741 22.8139 8.92526 21.994 9.61589 21.3034C10.3065 20.6128 11.1264 20.0649 12.0288 19.6911C12.9312 19.3174 13.8983 19.125 14.875 19.125C15.8517 19.125 16.8188 19.3174 17.7212 19.6911C18.6236 20.0649 19.4435 20.6128 20.1341 21.3034C20.8247 21.994 21.3726 22.8139 21.7464 23.7163C22.1201 24.6187 22.3125 25.5858 22.3125 26.5625V27.625H19.9963C19.777 27.005 19.3714 26.4679 18.835 26.0875C18.2986 25.7071 17.6576 25.5018 17 25.5ZM25.5 34C24.9511 34.002 24.4124 34.1486 23.9381 34.425C23.5516 33.8167 22.9703 33.3574 22.2891 33.122C21.608 32.8866 20.8671 32.889 20.1875 33.1287V29.75H24.4375C24.7193 29.75 24.9895 29.6381 25.1888 29.4388C25.3881 29.2395 25.5 28.9693 25.5 28.6875C25.5 28.4057 25.3881 28.1355 25.1888 27.9362C24.9895 27.7369 24.7193 27.625 24.4375 27.625V26.5625C24.4364 24.2111 23.569 21.9426 22.001 20.1903C20.433 18.4381 18.2743 17.325 15.9375 17.0637V15.9375C15.9375 15.6557 15.8256 15.3855 15.6263 15.1862C15.427 14.9869 15.1568 14.875 14.875 14.875C14.5932 14.875 14.323 14.9869 14.1237 15.1862C13.9244 15.3855 13.8125 15.6557 13.8125 15.9375V17.0637C11.4757 17.325 9.31705 18.4381 7.74905 20.1903C6.18105 21.9426 5.31362 24.2111 5.3125 26.5625V27.625C5.03071 27.625 4.76046 27.7369 4.5612 27.9362C4.36194 28.1355 4.25 28.4057 4.25 28.6875C4.25 28.9693 4.36194 29.2395 4.5612 29.4388C4.76046 29.6381 5.03071 29.75 5.3125 29.75H13.8125V41.0231L10.7525 39.9606C10.0764 39.735 9.34307 39.7508 8.67731 40.0052C8.01154 40.2596 7.45456 40.7369 7.10123 41.3559C6.74789 41.9748 6.62006 42.6971 6.73949 43.3998C6.85893 44.1024 7.21824 44.7419 7.75625 45.2094L9.5625 46.75H5.3125C4.46712 46.75 3.65637 46.4142 3.0586 45.8164C2.46082 45.2186 2.125 44.4079 2.125 43.5625V5.3125C2.125 4.46712 2.46082 3.65637 3.0586 3.0586C3.65637 2.46082 4.46712 2.125 5.3125 2.125H7.4375V3.1875C7.4375 4.03288 7.77332 4.84363 8.3711 5.4414C8.96887 6.03918 9.77962 6.375 10.625 6.375H19.125C19.9704 6.375 20.7811 6.03918 21.3789 5.4414C21.9767 4.84363 22.3125 4.03288 22.3125 3.1875V2.125H24.4375C25.2829 2.125 26.0936 2.46082 26.6914 3.0586C27.2892 3.65637 27.625 4.46712 27.625 5.3125V34.8288C27.0431 34.2998 26.2863 34.0047 25.5 34Z" fill="#F5274C"/>
</svg>
